<svg width="17" height="11" viewBox="0 0 17 11" fill="none" xmlns="http://www.w3.org/2000/svg">
<g clip-path="url(#clip0_0_535)">
<g clip-path="url(#clip1_0_535)">
<g clip-path="url(#clip2_0_535)">
<path d="M16.7254 0.291016H0.735352V10.951H16.7254V0.291016Z" fill="#10331E"/>
<path d="M7.66211 5.61204C7.67146 5.60269 7.67769 5.59334 7.68705 5.58398C7.68081 5.59334 7.67146 5.60269 7.66211 5.61204Z" fill="white"/>
<path d="M6.59603 6.91797L6.9389 7.63175L7.70879 7.45409L7.36592 8.16475L7.9862 8.65723L7.21319 8.83178L7.21631 9.62349L6.59603 9.12789L5.97887 9.62349L5.98199 8.83178L5.20898 8.65723L5.82926 8.16475L5.48328 7.45409L6.25628 7.63175L6.59603 6.91797Z" fill="white"/>
<path d="M12.7643 7.80566L12.9264 8.14541L13.2942 8.06125L13.129 8.401L13.4251 8.63478L13.0573 8.71582V9.09608L12.7643 8.8592L12.4682 9.09608L12.4713 8.71582L12.1035 8.63478L12.3996 8.401L12.2344 8.06125L12.6022 8.14541L12.7643 7.80566Z" fill="white"/>
<path d="M11.2489 4.19043L11.411 4.53018L11.7788 4.44602L11.6136 4.78577L11.9097 5.01954L11.5419 5.1037V5.48085L11.2489 5.24396L10.9528 5.48085L10.9559 5.1037L10.585 5.01954L10.8811 4.78577L10.7159 4.44602L11.0837 4.53018L11.2489 4.19043Z" fill="white"/>
<path d="M12.7643 2.12695L12.9264 2.4667L13.2942 2.38254L13.129 2.72229L13.4251 2.95606L13.0573 3.04022V3.41737L12.7643 3.18049L12.4682 3.41737L12.4713 3.04022L12.1035 2.95606L12.3996 2.72229L12.2344 2.38254L12.6022 2.4667L12.7643 2.12695Z" fill="white"/>
<path d="M14.0887 3.67578L14.2508 4.01553L14.6186 3.93137L14.4534 4.27112L14.7495 4.50489L14.3817 4.58593V4.9662L14.0887 4.72931L13.7926 4.9662V4.58593L13.4248 4.50489L13.7209 4.27112L13.5557 3.93137L13.9235 4.01553L14.0887 3.67578Z" fill="white"/>
<path d="M13.141 5.48047L13.2688 5.87632H13.6833L13.3467 6.11945L13.4776 6.5153L13.141 6.26906L12.8044 6.5153L12.9321 6.11945L12.5986 5.87632H13.0132L13.141 5.48047Z" fill="white"/>
<path d="M8.67766 0.291016V1.24481L7.27191 2.02716H8.67766V3.87552H6.83553L8.67766 4.89788V5.61166H7.84543L5.55446 4.33683V5.61166H3.82144V4.09682L1.09721 5.61166H0.698242V4.65788L2.10711 3.87552H0.698242V2.02716H2.54037L0.698242 1.00168V0.291016H1.53047L3.82144 1.56273V0.291016H5.55446V1.80586L8.2818 0.291016H8.67766Z" fill="white"/>
<path d="M5.18666 0.291016H4.18924V2.45107H0.698242V3.4485H4.18924V5.61166H5.18666V3.4485H8.67766V2.45107H5.18666V0.291016Z" fill="#10331E"/>
<path d="M5.55469 3.87598L8.67788 5.61212V5.11964L6.4399 3.87598H5.55469Z" fill="#104927"/>
<path d="M5.55469 3.87598L8.67788 5.61212V5.11964L6.4399 3.87598H5.55469Z" fill="white"/>
<path d="M5.55347 3.87598L8.67666 5.61212V5.11964L6.43868 3.87598H5.55347Z" fill="#10331E"/>
<path d="M2.93836 3.87598L0.697266 5.11964V5.61212L3.82046 3.87598H2.93836Z" fill="#10331E"/>
<path d="M3.82143 2.02716L0.698242 0.291016V0.780378L2.93934 2.02716H3.82143Z" fill="#104927"/>
<path d="M3.82143 2.02716L0.698242 0.291016V0.780378L2.93934 2.02716H3.82143Z" fill="white"/>
<path d="M3.82143 2.02716L0.698242 0.291016V0.780378L2.93934 2.02716H3.82143Z" fill="#10331E"/>
<path d="M6.43966 2.02716L8.67764 0.780378V0.291016L5.55444 2.02716H6.43966Z" fill="#10331E"/>
</g>
</g>
</g>
<defs>
<clipPath id="clip0_0_535">
<rect width="16" height="10.66" fill="white" transform="translate(0.730469 0.291016)"/>
</clipPath>
<clipPath id="clip1_0_535">
<rect width="16" height="10.66" fill="white" transform="translate(0.730469 0.291016)"/>
</clipPath>
<clipPath id="clip2_0_535">
<rect width="15.99" height="10.66" fill="white" transform="translate(0.735352 0.291016)"/>
</clipPath>
</defs>
</svg>
