<svg width="17" height="17" viewBox="0 0 17 17" fill="none" xmlns="http://www.w3.org/2000/svg">
<path d="M15.502 9.13184L13.7207 13.2256C13.4499 13.6631 13.0645 13.8818 12.5645 13.8818H7.1582C6.74154 13.8818 6.37695 13.7256 6.06445 13.4131C5.75195 13.1006 5.5957 12.736 5.5957 12.3193V7.10059C5.5957 6.72559 5.73112 6.40267 6.00195 6.13184L10.2832 1.88184L10.5645 2.19434C10.8145 2.44434 11.0124 2.71517 11.1582 3.00684C11.2207 3.15267 11.2415 3.2985 11.2207 3.44434L10.5957 6.53809H14.2832C14.6374 6.53809 14.9447 6.6735 15.2051 6.94434C15.4655 7.21517 15.5957 7.52767 15.5957 7.88184V8.60059C15.5957 8.78809 15.5645 8.96517 15.502 9.13184ZM2.2832 13.8818V6.53809H3.5957C3.7832 6.53809 3.94466 6.60059 4.08008 6.72559C4.21549 6.85059 4.2832 7.00684 4.2832 7.19434V13.1943C4.2832 13.3818 4.21549 13.5433 4.08008 13.6787C3.94466 13.8141 3.7832 13.8818 3.5957 13.8818H2.2832Z" fill="#10331E"/>
</svg>
