<svg width="50" height="50" viewBox="0 0 50 50" fill="none" xmlns="http://www.w3.org/2000/svg">
<path d="M25 50C38.8071 50 50 38.8071 50 25C50 11.1929 38.8071 0 25 0C11.1929 0 0 11.1929 0 25C0 38.8071 11.1929 50 25 50Z" fill="#F2EFEB"/>
<path d="M32.376 28.0249C32.376 32.2926 28.8502 35.752 24.501 35.752C20.1517 35.752 16.626 32.2926 16.626 28.0249C16.626 21.2636 24.501 13.252 24.501 13.252C24.501 13.252 32.376 21.2631 32.376 28.0249Z" fill="#567348"/>
<path fill-rule="evenodd" clip-rule="evenodd" d="M24.501 34.627C28.2489 34.627 31.251 31.6514 31.251 28.0249C31.251 25.0116 29.4634 21.564 27.5131 18.7425C26.5859 17.4069 25.58 16.1276 24.501 14.9114C23.4219 16.1276 22.416 17.4069 21.4887 18.7425C19.5386 21.564 17.751 25.0116 17.751 28.0249C17.751 31.6508 20.753 34.627 24.501 34.627ZM23.736 14.0789C21.7571 16.2945 16.626 22.567 16.626 28.0249C16.626 32.2926 20.1517 35.752 24.501 35.752C28.8502 35.752 32.376 32.2926 32.376 28.0249C32.376 22.567 27.2449 16.2945 25.266 14.0789C24.7935 13.5501 24.501 13.252 24.501 13.252C24.501 13.252 24.2085 13.5501 23.736 14.0789Z" fill="#567348"/>
</svg>
