<svg width="21" height="21" viewBox="0 0 21 21" fill="none" xmlns="http://www.w3.org/2000/svg">
<path d="M7.70508 13.2812C9.11133 13.2812 10.3066 12.7891 11.291 11.8047C12.2754 10.8203 12.7676 9.625 12.7676 8.21875C12.7676 6.8125 12.2754 5.61719 11.291 4.63281C10.3066 3.64844 9.11133 3.15625 7.70508 3.15625C6.29883 3.15625 5.10352 3.64844 4.11914 4.63281C3.13477 5.61719 2.64258 6.8125 2.64258 8.21875C2.64258 9.625 3.13477 10.8203 4.11914 11.8047C5.10352 12.7891 6.29883 13.2812 7.70508 13.2812ZM14.4551 13.2812L20.0449 18.8711L18.3574 20.5586L12.7676 14.9688V14.0723L12.4512 13.7559C11.1152 14.916 9.5332 15.4961 7.70508 15.4961C5.66602 15.4961 3.93457 14.793 2.51074 13.3867C1.08691 11.9805 0.375 10.2578 0.375 8.21875C0.375 6.17969 1.08691 4.44824 2.51074 3.02441C3.93457 1.60059 5.66602 0.888672 7.70508 0.888672C9.74414 0.888672 11.4668 1.60059 12.873 3.02441C14.2793 4.44824 14.9824 6.17969 14.9824 8.21875C14.9824 8.95703 14.8066 9.79199 14.4551 10.7236C14.1035 11.6553 13.6992 12.4023 13.2422 12.9648L13.5586 13.2812H14.4551Z" fill="#E4E4E4"/>
</svg>
