<svg width="44" height="44" viewBox="0 0 44 44" fill="none" xmlns="http://www.w3.org/2000/svg">
<path d="M22.0003 43.7452C33.7839 43.7452 43.3365 34.1927 43.3365 22.409C43.3365 10.6254 33.7839 1.07281 22.0003 1.07281C10.2166 1.07281 0.664062 10.6254 0.664062 22.409C0.664062 34.1927 10.2166 43.7452 22.0003 43.7452Z" fill="white" stroke="#567348" stroke-width="0.431034"/>
<path d="M19.946 28.7834C19.8785 28.7838 19.813 28.7605 19.7611 28.7174C19.6502 28.6238 19.6427 28.4653 19.745 28.3638L26.2689 21.8715L19.7458 15.4104C19.6433 15.309 19.6502 15.1506 19.7611 15.0568C19.8718 14.9631 20.0444 14.969 20.1471 15.0709L26.8415 21.7015C26.9383 21.7971 26.9383 21.9449 26.8421 22.0406L20.1477 28.7024C20.0938 28.7548 20.0212 28.7839 19.946 28.7834Z" fill="#567348"/>
</svg>
