<svg width="17" height="17" viewBox="0 0 17 17" fill="none" xmlns="http://www.w3.org/2000/svg">
<g clip-path="url(#clip0_0_267)">
<path d="M15.8105 7.45996C16.0189 7.25163 16.097 7.05892 16.0449 6.88184C15.9928 6.70475 15.821 6.59538 15.5293 6.55371L10.6855 5.83496L8.5293 1.45996C8.4043 1.20996 8.24805 1.08496 8.06055 1.08496C7.87305 1.08496 7.7168 1.20996 7.5918 1.45996L5.43555 5.83496L0.591797 6.55371C0.30013 6.59538 0.128255 6.70475 0.0761719 6.88184C0.0240885 7.05892 0.102214 7.25163 0.310547 7.45996L3.81055 10.8662L2.9668 15.6787C2.94596 15.887 2.9668 16.0485 3.0293 16.1631C3.0918 16.2777 3.20638 16.335 3.37305 16.335C3.47721 16.335 3.60221 16.2933 3.74805 16.21L8.06055 13.96L12.373 16.21C12.5189 16.2933 12.6439 16.335 12.748 16.335C12.9147 16.335 13.0293 16.2777 13.0918 16.1631C13.1543 16.0485 13.1751 15.887 13.1543 15.6787L12.3105 10.8662L15.8105 7.45996ZM11.4668 9.95996L10.998 10.4287L11.123 11.0537L11.6855 14.46L8.62305 12.8662L8.06055 12.5537V3.30371L9.5918 6.39746L9.87305 6.95996L10.498 7.08496L13.9355 7.58496L11.4668 9.95996Z" fill="#10331E"/>
</g>
<defs>
<clipPath id="clip0_0_267">
<rect width="16" height="16" fill="white" transform="matrix(1 0 0 -1 0.0605469 16.71)"/>
</clipPath>
</defs>
</svg>
