<svg width="14" height="13" viewBox="0 0 14 13" fill="none" xmlns="http://www.w3.org/2000/svg">
<g clip-path="url(#clip0_0_330)">
<path d="M13.5791 4.69342C13.5791 4.51383 13.4403 4.39954 13.1627 4.35056L9.36681 3.7873L7.67702 0.358727C7.57906 0.162808 7.45661 0.0648489 7.30967 0.0648489C7.16273 0.0648489 7.04028 0.162808 6.94232 0.358727L5.25253 3.7873L1.45661 4.35056C1.17906 4.39954 1.04028 4.51383 1.04028 4.69342C1.04028 4.80771 1.10559 4.93015 1.2362 5.06077L3.97906 7.73015L3.31783 11.5016C3.31783 11.5669 3.31783 11.6159 3.31783 11.6485C3.31783 11.7465 3.34232 11.8322 3.3913 11.9057C3.44028 11.9791 3.52192 12.0159 3.6362 12.0159C3.71783 12.0159 3.81579 11.9832 3.93008 11.9179L7.30967 10.1546L10.6893 11.9179C10.8035 11.9832 10.9015 12.0159 10.9831 12.0159C11.1954 12.0159 11.3015 11.8934 11.3015 11.6485C11.3015 11.5832 11.3015 11.5342 11.3015 11.5016L10.6403 7.73015L13.3831 5.06077C13.5138 4.93015 13.5791 4.80771 13.5791 4.69342ZM9.61171 7.3873L10.1505 10.5465L7.30967 9.0526L4.46885 10.5465L5.00763 7.3873L2.70559 5.15873L5.88926 4.66893L7.30967 1.80362L8.73008 4.66893L11.9138 5.15873L9.61171 7.3873Z" fill="#10331E"/>
</g>
<defs>
<clipPath id="clip0_0_330">
<rect width="13" height="12" fill="white" transform="matrix(1 0 0 -1 0.80957 12.0403)"/>
</clipPath>
</defs>
</svg>
