<svg width="17" height="17" viewBox="0 0 17 17" fill="none" xmlns="http://www.w3.org/2000/svg">
<g clip-path="url(#clip0_0_255)">
<path d="M16.0605 6.99121C16.0605 6.76204 15.8835 6.61621 15.5293 6.55371L10.6855 5.83496L8.5293 1.45996C8.4043 1.20996 8.24805 1.08496 8.06055 1.08496C7.87305 1.08496 7.7168 1.20996 7.5918 1.45996L5.43555 5.83496L0.591797 6.55371C0.23763 6.61621 0.0605469 6.76204 0.0605469 6.99121C0.0605469 7.13704 0.14388 7.29329 0.310547 7.45996L3.81055 10.8662L2.9668 15.6787C2.9668 15.762 2.9668 15.8245 2.9668 15.8662C2.9668 15.9912 2.99805 16.1006 3.06055 16.1943C3.12305 16.2881 3.22721 16.335 3.37305 16.335C3.47721 16.335 3.60221 16.2933 3.74805 16.21L8.06055 13.96L12.373 16.21C12.5189 16.2933 12.6439 16.335 12.748 16.335C12.8939 16.335 12.998 16.2881 13.0605 16.1943C13.123 16.1006 13.1543 15.9912 13.1543 15.8662C13.1543 15.7829 13.1543 15.7204 13.1543 15.6787L12.3105 10.8662L15.8105 7.45996C15.9772 7.29329 16.0605 7.13704 16.0605 6.99121Z" fill="#10331E"/>
</g>
<defs>
<clipPath id="clip0_0_255">
<rect width="16" height="16" fill="white" transform="matrix(1 0 0 -1 0.0605469 16.71)"/>
</clipPath>
</defs>
</svg>
